# xmcd
#
# Track frame offsets:
#	150
#	13482
#	28266
#	41258
#	54205
#	65352
#	78874
#	92248
#	104097
#	119814
#	133694
#	148771
#	163016
#	176791
#	190310
#	205212
#	217834
#	232396
#
# Disc length: 3265 seconds
#
# Revision: 3
# Processed by: cddbd v1.5.2PL0 Copyright (c) Steve Scherf et al.
# Submitted via: audiograbber 1.83.01
#
DISCID=120cbf12
DTITLE=Muddy Waters - I Got My Mojo Working
DYEAR=2000
DGENRE=Jazz
TTITLE0=Mannish Boy
TTITLE1=Baby Please Don't Go
TTITLE2=Mean Mistreater
TTITLE3=40 Days And 40 Nights
TTITLE4=I Feel So Good
TTITLE5=One More Mile
TTITLE6=Rollin' And Tumblin'
TTITLE7=You Can't Lose What You Ain't Never Had
TTITLE8=Goin' Home
TTITLE9=I Can't Be Statisfied
TTITLE10=I'm Ready
TTITLE11=Rock Me
TTITLE12=Rollin' Stone
TTITLE13=Sad Letter
TTITLE14=She Moves Me
TTITLE15=Walkin' Thru The Park
TTITLE16=I Got My Mojo Working
TTITLE17=Long Distance Call
EXTD=Jazz Master Collection 16
EXTT0=
EXTT1=
EXTT2=
EXTT3=
EXTT4=
EXTT5=
EXTT6=
EXTT7=
EXTT8=
EXTT9=
EXTT10=
EXTT11=
EXTT12=
EXTT13=
EXTT14=
EXTT15=
EXTT16=
EXTT17=
PLAYORDER=
